<?xml version="1.0" standalone="no"?><!DOCTYPE svg PUBLIC "-//W3C//DTD SVG 1.1//EN" "http://www.w3.org/Graphics/SVG/1.1/DTD/svg11.dtd"><svg class="icon" height="512" viewBox="0 0 1024 1024" version="1.1" xmlns="http://www.w3.org/2000/svg"><path d="M885.952 786.432 698.88 601.152C741.376 550.976 768 486.912 768 416 768 256.96 639.04 128 480 128S192 256.96 192 416 320.96 704 480 704c40.32 0 78.656-8.448 113.472-23.424l195.584 205.12c13.376 13.696 35.072 13.696 48.448 0l48.448-49.664C899.328 822.336 899.328 800.128 885.952 786.432zM288 416c0-106.048 85.952-192 192-192s192 85.952 192 192-85.952 192-192 192S288 522.048 288 416z" /></svg>